<svg width="201" height="59" viewBox="0 0 201 59" fill="none" xmlns="http://www.w3.org/2000/svg">
<path fill-rule="evenodd" clip-rule="evenodd" d="M16.9861 28.9938L17.5671 28.0472L19.9686 24.1358C20.3395 23.5115 20.6788 22.9581 21.4098 22.6197C23.8895 21.4712 25.7318 23.8014 26.7616 25.7003C26.9024 25.9598 27.0276 26.2114 27.1376 26.4449H27.1379L35.6249 40.4246L36.11 41.216C36.7189 42.1249 37.2529 43.2113 37.8011 44.0578C39.3389 46.4317 39.8002 47.4452 43.7813 47.2063C46.8168 47.0237 49.8897 47.2376 52.9355 47.163C56.6367 47.0726 56.2149 44.3476 54.8998 42.0947L50.0608 34.1417L48.8858 32.2104L37.6823 13.8141L37.2751 13.1492L32.0293 4.57756C31.2086 3.16805 30.4082 1.10109 28.4819 0.9636C25.7047 0.765146 24.6675 3.41684 22.9364 6.33341L13.3047 22.2003L10.7493 26.4097L3.60748 38.1674C3.44903 38.3211 2.78276 39.2351 2.10765 40.3504C1.31034 41.668 0.5 43.2669 0.5 44.2262C0.5 45.9218 2.15961 47.2469 3.84089 47.2601C5.52791 47.2736 6.09931 46.358 6.73545 45.467L16.9861 28.9938Z" fill="white"/>
<path fill-rule="evenodd" clip-rule="evenodd" d="M29.2168 29.9096C32.1896 28.3096 35.3057 26.8368 38.6095 25.5326C38.9251 25.4086 39.2431 25.2849 39.5625 25.1635C40.8267 24.6827 42.2889 24.1842 43.7284 23.7852L45.6342 26.9144L45.5312 26.9569C41.9551 28.4356 37.4308 31.2137 32.2455 34.8981L29.2168 29.9096Z" fill="#4D4636"/>
<path fill-rule="evenodd" clip-rule="evenodd" d="M2.60156 39.566C2.88649 39.1565 3.52531 38.2484 3.60734 38.1688L4.3029 37.0234C4.95431 37.7985 5.68765 39.0143 6.13216 38.7017C6.74668 38.2697 5.93688 40.9095 6.63604 40.6067C7.58878 40.1941 9.13735 39.6915 10.3162 39.7136L7.02415 45.0041L6.43754 45.884C6.38376 45.8145 2.81271 40.0356 2.60156 39.566Z" fill="#4D4636"/>
<path fill-rule="evenodd" clip-rule="evenodd" d="M5.98836 42.2827C4.44383 40.1651 3.07642 38.1919 2.3169 35.7639C1.68846 33.7556 1.53866 33.901 3.06861 32.8113C5.27003 31.2436 7.56045 29.4668 9.84602 27.8582C10.4612 27.4257 10.9665 27.0735 11.6666 26.7702C12.4627 26.4246 12.9093 26.4576 13.2131 27.1134C13.5053 27.7448 13.722 28.5606 14.0442 29.2837C14.3303 29.926 14.6171 30.5686 14.9031 31.2111C15.361 32.238 15.5108 32.9112 16.4402 33.631C17.0018 34.0658 17.5748 34.2495 18.1642 34.0936C18.8765 33.9047 24.6189 29.8952 25.8583 29.1857C26.1926 28.9946 26.5286 28.8046 26.8662 28.6166C30.2056 26.7572 33.7222 25.0546 37.4817 23.5708C37.7969 23.4464 38.1151 23.3226 38.4347 23.2011C40.3969 22.4546 42.8361 21.6667 44.9288 21.271C45.4458 21.1735 45.918 21.118 46.3403 21.1002C49.4984 20.9668 49.8482 22.9186 45.0887 24.7229C44.8646 24.8079 44.6355 24.8986 44.4032 24.9946C39.0072 27.2256 31.4528 32.4154 22.7249 39.2123C20.411 41.129 18.0971 43.0456 15.783 44.9624C13.7636 46.3521 11.6907 46.9574 9.50019 45.8164C7.93986 45.0048 6.99612 43.664 5.98836 42.2827Z" fill="#E1C16E"/>
<path fill-rule="evenodd" clip-rule="evenodd" d="M62.6913 12.761C63.8668 12.761 64.8855 12.3778 65.7475 11.6113C66.6096 10.8447 67.0406 9.80997 67.0406 8.50691C67.0406 7.16552 66.6096 6.11158 65.7475 5.34507C64.8855 4.57857 63.8668 4.19531 62.6913 4.19531C61.4766 4.19531 60.4383 4.57857 59.5762 5.34507C58.7142 6.11158 58.2832 7.16552 58.2832 8.50691C58.2832 9.80997 58.7142 10.8447 59.5762 11.6113C60.4383 12.3778 61.4766 12.761 62.6913 12.761ZM66.2765 47.3687V17.3026H59.1648V47.3687H66.2765ZM77.5578 23.2813V47.3687H70.4461V18.7398C71.8175 18.2415 73.5317 17.772 75.5888 17.3313C77.6459 16.8906 79.9283 16.6702 82.436 16.6702C82.9062 16.6702 83.4548 16.6989 84.0817 16.7564C84.7086 16.8139 85.3356 16.8906 85.9625 16.9864C86.5894 17.0822 87.1967 17.1972 87.7845 17.3313C88.3722 17.4654 88.8424 17.59 89.1951 17.705L87.9608 23.5687C87.3731 23.3771 86.56 23.1759 85.5217 22.9651C84.4833 22.7543 83.2785 22.6489 81.9071 22.6489C81.1234 22.6489 80.2908 22.7256 79.4092 22.8789C78.5275 23.0322 77.9104 23.1663 77.5578 23.2813ZM102.298 48.1736C104.493 48.1736 106.501 47.7903 108.323 47.0238C110.145 46.2573 111.702 45.1842 112.995 43.8045C114.288 42.4248 115.287 40.7576 115.993 38.803C116.698 36.8485 117.051 34.6831 117.051 32.3069C117.051 29.9307 116.688 27.7749 115.963 25.8395C115.238 23.9041 114.23 22.2465 112.936 20.8668C111.643 19.4871 110.086 18.4236 108.264 17.6762C106.442 16.9289 104.453 16.5552 102.298 16.5552C100.143 16.5552 98.1646 16.9289 96.3621 17.6762C94.5597 18.4236 93.0022 19.4871 91.6896 20.8668C90.377 22.2465 89.3582 23.9041 88.6333 25.8395C87.9085 27.7749 87.546 29.9307 87.546 32.3069C87.546 34.6831 87.9085 36.8485 88.6333 38.803C89.3582 40.7576 90.3672 42.4248 91.6602 43.8045C92.9532 45.1842 94.501 46.2573 96.3034 47.0238C98.1058 47.7903 100.104 48.1736 102.298 48.1736ZM96.803 39.4929C98.1156 41.2559 99.9474 42.1373 102.298 42.1373C104.649 42.1373 106.481 41.2559 107.794 39.4929C109.106 37.7299 109.763 35.3346 109.763 32.3069C109.763 29.3175 109.106 26.9509 107.794 25.2071C106.481 23.4633 104.649 22.5914 102.298 22.5914C99.9474 22.5914 98.1156 23.4633 96.803 25.2071C95.4903 26.9509 94.834 29.3175 94.834 32.3069C94.834 35.3346 95.4903 37.7299 96.803 39.4929Z" fill="white"/>
<path fill-rule="evenodd" clip-rule="evenodd" d="M126.627 46.3317V58.0018H119.516V18.2776C120.965 17.8944 122.748 17.5303 124.864 17.1854C126.98 16.8404 129.213 16.668 131.564 16.668C133.994 16.668 136.168 17.0321 138.088 17.7602C140.008 18.4884 141.644 19.5328 142.996 20.8933C144.348 22.2539 145.386 23.9019 146.111 25.8373C146.836 27.7727 147.198 29.9477 147.198 32.3622C147.198 34.6617 146.895 36.7696 146.287 38.6858C145.68 40.6021 144.808 42.2501 143.672 43.6298C142.536 45.0095 141.115 46.0826 139.411 46.8491C137.706 47.6156 135.776 47.9989 133.621 47.9989C132.172 47.9989 130.839 47.8264 129.625 47.4815C128.41 47.1366 127.411 46.7533 126.627 46.3317ZM129.125 41.474C130.164 41.8381 131.27 42.0201 132.446 42.0201C135.032 42.0201 136.923 41.1578 138.118 39.4332C139.313 37.7085 139.91 35.3899 139.91 32.4771C139.91 29.3728 139.195 26.9583 137.765 25.2337C136.335 23.509 134.033 22.6467 130.859 22.6467C130.193 22.6467 129.497 22.6755 128.773 22.7329C128.048 22.7904 127.333 22.915 126.627 23.1066V40.2955C127.254 40.7171 128.087 41.1099 129.125 41.474Z" fill="#E1C16E"/>
<path fill-rule="evenodd" clip-rule="evenodd" d="M167.383 47.5119C165.17 47.8377 162.672 48.0006 159.89 48.0006C158.048 48.0006 156.363 47.8281 154.835 47.4832C153.307 47.1383 152.004 46.5825 150.927 45.816C149.849 45.0495 149.007 44.0531 148.399 42.8267C147.792 41.6003 147.488 40.0864 147.488 38.2851C147.488 36.5605 147.831 35.1041 148.517 33.916C149.203 32.728 150.133 31.7602 151.309 31.0129C152.484 30.2656 153.846 29.729 155.393 29.4032C156.941 29.0775 158.557 28.9146 160.242 28.9146C161.026 28.9146 161.849 28.9625 162.711 29.0583C163.573 29.1541 164.494 29.317 165.473 29.547V28.3972C165.473 27.5924 165.375 26.8259 165.179 26.0977C164.983 25.3695 164.641 24.7276 164.151 24.1718C163.661 23.6161 163.014 23.185 162.211 22.8784C161.408 22.5718 160.399 22.4185 159.184 22.4185C157.539 22.4185 156.03 22.5334 154.659 22.7634C153.287 22.9933 152.171 23.2616 151.309 23.5682L150.427 17.9344C151.328 17.6278 152.641 17.3212 154.365 17.0146C156.089 16.708 157.931 16.5547 159.89 16.5547C162.241 16.5547 164.219 16.8421 165.826 17.417C167.432 17.9919 168.716 18.7967 169.676 19.8315C170.636 20.8663 171.321 22.1214 171.733 23.597C172.144 25.0725 172.35 26.6917 172.35 28.4547V46.6784C171.253 46.9083 169.597 47.1862 167.383 47.5119ZM156.187 41.5332C157.245 42.1656 158.675 42.4817 160.477 42.4817C162.672 42.4817 164.337 42.3668 165.473 42.1368V34.4334C165.081 34.3185 164.513 34.2035 163.769 34.0885C163.024 33.9735 162.201 33.916 161.3 33.916C160.517 33.916 159.723 33.9735 158.92 34.0885C158.117 34.2035 157.392 34.4143 156.745 34.7209C156.099 35.0275 155.58 35.4586 155.188 36.0143C154.796 36.5701 154.6 37.2695 154.6 38.1127C154.6 39.7606 155.129 40.9008 156.187 41.5332Z" fill="#E1C16E"/>
<path fill-rule="evenodd" clip-rule="evenodd" d="M176.519 58.1172C178.165 58.1172 179.615 57.9352 180.869 57.5711C182.123 57.207 183.259 56.6225 184.278 55.8177C185.296 55.0129 186.217 53.9972 187.04 52.7708C187.863 51.5444 188.666 50.0689 189.45 48.3443C193.642 39.0695 197.326 28.7217 200.499 17.3008H193.153C192.251 20.9034 191.252 24.6305 190.155 28.4822C189.058 32.3339 187.882 35.9652 186.629 39.3761C185.884 37.7282 185.14 35.946 184.395 34.0298C183.651 32.1135 182.945 30.1877 182.279 28.2522C181.613 26.3168 180.996 24.4101 180.428 22.5322C179.86 20.6542 179.38 18.9104 178.988 17.3008H171.406C173.013 22.8963 174.844 28.1852 176.901 33.1674C178.959 38.1497 181.104 42.7488 183.337 46.9646C182.554 48.7658 181.643 50.0976 180.604 50.96C179.566 51.8223 178.126 52.2534 176.284 52.2534C174.913 52.2534 173.522 51.9852 172.111 51.4486L170.818 57.0249C171.367 57.2932 172.18 57.5423 173.257 57.7723C174.335 58.0022 175.422 58.1172 176.519 58.1172Z" fill="#E1C16E"/>
</svg>
